<svg xmlns="http://www.w3.org/2000/svg" x="0px" y="0px"
	 viewBox="0 0 100 95.6" style="enable-background:new 0 0 100 95.6;" xml:space="preserve">
<path d="M87.7,73.7C95.3,66,100,55.9,100,44.9c0-24.2-22.4-43.8-50-43.8S0,20.8,0,44.9c0,24.2,22.4,43.8,50,43.8
	c5,0,9.9-0.6,14.7-1.9c3.6,1.9,12,5.4,26.1,7.7c1.2,0.2,2.2-1.1,1.7-2.3C90.3,87,88.3,80,87.7,73.7z M53.1,65.3h-25
	c-1.7,0-3.1-1.4-3.1-3.1c0-1.7,1.4-3.1,3.1-3.1h25c1.7,0,3.1,1.4,3.1,3.1C56.2,63.9,54.8,65.3,53.1,65.3z M71.9,49.7H28.1
	c-1.7,0-3.1-1.4-3.1-3.1s1.4-3.1,3.1-3.1h43.8c1.7,0,3.1,1.4,3.1,3.1S73.6,49.7,71.9,49.7z M71.9,34.1H28.1c-1.7,0-3.1-1.4-3.1-3.1
	c0-1.7,1.4-3.1,3.1-3.1h43.8c1.7,0,3.1,1.4,3.1,3.1C75,32.7,73.6,34.1,71.9,34.1z"/>
</svg>
