<svg xmlns="http://www.w3.org/2000/svg" viewBox="0 0 77.4 100">
  <path d="M73.6,52.94C78.2,108.89,8.64,117.87,3.37,64.02c-.14-8.73-.04-17.47-.01-26.19-.55-7.54,8.73-4.11,13.4-4.88,3.03-.06,4.3,1.43,4.28,4.38-.04,8.85-.07,17.69,0,26.54,.07,8.87,6.53,16.18,15.18,17.33,25.62,1.36,18.91-26.54,19.73-43.34-.53-7.66,8.97-4.15,13.7-4.9,2.68,0,3.96,1.36,3.96,4v15.99Z"/>
  <path d="M64.88,0c16.98-.44,16.32,25.34,.23,25.08C48.42,25.1,48.84,0,64.88,0Z"/>
  <path d="M12.26,0c16.73-.33,16.27,25.06,.32,25.08C-4.24,25.39-4.04-.06,12.26,0Z"/>
</svg>