<svg xmlns="http://www.w3.org/2000/svg" x="0px" y="0px"
	 viewBox="0 0 100 100" style="enable-background:new 0 0 100 100;" xml:space="preserve">
<path d="M100,50c0,27.6-22.4,50-50,50S0,77.6,0,50S22.4,0,50,0S100,22.4,100,50 M34.3,37.7h5.2c0.9,0,1.5-0.7,1.7-1.6
	c0.6-4.1,3.4-7.1,8.4-7.1c4.3,0,8.2,2.1,8.2,7.3c0,4-2.3,5.8-6,8.6c-4.2,3.1-7.5,6.6-7.3,12.4l0,1.4c0,0.9,0.7,1.5,1.6,1.5h5.1
	c0.9,0,1.6-0.7,1.6-1.6V58c0-4.5,1.7-5.8,6.3-9.3c3.8-2.9,7.8-6.1,7.8-12.8c0-9.4-8-14-16.7-14c-7.9,0-16.6,3.7-17.2,14.3
	C32.8,37,33.4,37.7,34.3,37.7C34.3,37.7,34.3,37.7,34.3,37.7 M48.9,78c3.8,0,6.4-2.5,6.4-5.8c0-3.4-2.6-5.9-6.4-5.9
	c-3.7,0-6.3,2.4-6.3,5.9C42.6,75.5,45.2,78,48.9,78L48.9,78z"/>
</svg>
