<svg xmlns="http://www.w3.org/2000/svg" viewBox="0 0 83.4 100">
  <path d="M66.26,6.59V30.98h13.69v6.46h-13.64c-.02,.43-.05,.78-.05,1.13,0,14.3-.02,28.6,.02,42.9,0,1.34,.21,2.73,.61,4.01,1.32,4.22,6.04,5.44,9.17,2.3,1.45-1.46,2.53-3.3,3.76-4.98,.19-.26,.33-.57,.54-.94,.91,.43,1.87,.75,2.65,1.32,.32,.24,.5,1.14,.32,1.55-3.25,7.06-7.84,12.77-15.82,14.63-4.72,1.1-9.43,.83-13.87-1.36-4.43-2.18-6.68-5.89-7.24-10.7-.14-1.22-.17-2.45-.17-3.68-.01-14.93,0-29.86,0-44.8,0-.42,0-.85,0-1.37h-7.47c0-1.38-.08-2.67,.05-3.94,.04-.42,.63-.8,1-1.16,3.15-3,6.41-5.88,9.43-9,4.75-4.89,8.91-10.27,12.64-15.98,.45-.69,.91-1.04,1.75-.95,.75,.08,1.52,.02,2.29,.03,.06,0,.12,.04,.36,.12Z"/>
  <path d="M34.52,97.98H.03v-3.47c.69-.17,1.38-.36,2.09-.51,3.2-.66,4.64-2.83,5-5.89,.12-.99,.19-1.99,.19-2.98,.01-13.87,.03-27.75-.02-41.62,0-1.55-.26-3.1-.54-4.63-.29-1.61-1.4-2.62-2.86-3.19-1.26-.48-2.57-.83-3.89-1.25v-3.38H27.82c0,.46,0,.88,0,1.3,0,18.1,0,36.2,.01,54.29,0,1.06,.1,2.13,.25,3.17,.26,1.79,1.22,3.06,2.97,3.64,.85,.28,1.69,.6,2.56,.78,.73,.15,.97,.48,.91,1.21-.06,.82-.01,1.65-.01,2.53Z"/>
  <path d="M6.32,11.28C6.32,4.87,11.19,0,17.59,0c6.23,0,11.19,4.98,11.22,11.28,.04,6.25-5.04,11.31-11.33,11.3-6.27,0-11.17-4.96-11.17-11.3Z"/>
</svg>